<?xml version="1.0" encoding="utf-8"?>
<!-- Generator: Adobe Illustrator 18.1.1, SVG Export Plug-In . SVG Version: 6.00 Build 0)  -->
<!DOCTYPE svg PUBLIC "-//W3C//DTD SVG 1.1//EN" "http://www.w3.org/Graphics/SVG/1.1/DTD/svg11.dtd">
<svg version="1.1" id="Layer_1" xmlns="http://www.w3.org/2000/svg" xmlns:xlink="http://www.w3.org/1999/xlink" x="0px" y="0px"
	 viewBox="0 0 96 96" enable-background="new 0 0 96 96" xml:space="preserve">
<g>
	<linearGradient id="SVGID_1_" gradientUnits="userSpaceOnUse" x1="31.6222" y1="-1.1736" x2="97.1976" y2="64.4018">
		<stop  offset="0" style="stop-color:#00B280"/>
		<stop  offset="0.1865" style="stop-color:#07AF97"/>
		<stop  offset="0.5425" style="stop-color:#13ABBF"/>
		<stop  offset="0.8261" style="stop-color:#1BA9D7"/>
		<stop  offset="1" style="stop-color:#1DA8E0"/>
	</linearGradient>
	<path fill="url(#SVGID_1_)" d="M49.5,29.8c-0.8,0.8-2.1,0.8-2.9,0L33.4,16.7c-0.8-0.8-0.8-2.1,0-2.9L46.5,0.6
		c0.8-0.8,2.1-0.8,2.9,0l13.1,13.1c0.8,0.8,0.8,2.1,0,2.9L49.5,29.8z"/>
	<linearGradient id="SVGID_2_" gradientUnits="userSpaceOnUse" x1="-1.174" y1="31.6225" x2="64.4014" y2="97.1979">
		<stop  offset="0" style="stop-color:#00B280"/>
		<stop  offset="0.1865" style="stop-color:#07AF97"/>
		<stop  offset="0.5425" style="stop-color:#13ABBF"/>
		<stop  offset="0.8261" style="stop-color:#1BA9D7"/>
		<stop  offset="1" style="stop-color:#1DA8E0"/>
	</linearGradient>
	<path fill="url(#SVGID_2_)" d="M49.5,95.4c-0.8,0.8-2.1,0.8-2.9,0L33.4,82.3c-0.8-0.8-0.8-2.1,0-2.9l13.2-13.1
		c0.8-0.8,2.1-0.8,2.9,0l13.1,13.1c0.8,0.8,0.8,2.1,0,2.9L49.5,95.4z"/>
	<linearGradient id="SVGID_3_" gradientUnits="userSpaceOnUse" x1="31.6348" y1="-1.1863" x2="97.2102" y2="64.3891">
		<stop  offset="0" style="stop-color:#00B280"/>
		<stop  offset="0.1865" style="stop-color:#07AF97"/>
		<stop  offset="0.5425" style="stop-color:#13ABBF"/>
		<stop  offset="0.8261" style="stop-color:#1BA9D7"/>
		<stop  offset="1" style="stop-color:#1DA8E0"/>
	</linearGradient>
	<path fill="url(#SVGID_3_)" d="M82.3,62.6c-0.8,0.8-2.1,0.8-2.9,0L66.2,49.4c-0.8-0.8-0.8-2.1,0-2.9l13.2-13.1
		c0.8-0.8,2.1-0.8,2.9,0l13.1,13.1c0.8,0.8,0.8,2.1,0,2.9L82.3,62.6z"/>
	<linearGradient id="SVGID_4_" gradientUnits="userSpaceOnUse" x1="-14.0842" y1="44.5327" x2="51.4912" y2="110.1081">
		<stop  offset="0" style="stop-color:#00B280"/>
		<stop  offset="0.1865" style="stop-color:#07AF97"/>
		<stop  offset="0.5425" style="stop-color:#13ABBF"/>
		<stop  offset="0.8261" style="stop-color:#1BA9D7"/>
		<stop  offset="1" style="stop-color:#1DA8E0"/>
	</linearGradient>
	<path fill="url(#SVGID_4_)" d="M31.6,83.1c0-1.1-0.7-1.4-1.5-0.6l-5.8,5.8c-0.8,0.8-0.6,1.9,0.4,2.4l5,2.4c1.1,0.4,1.9-0.1,1.9-1.3
		V83.1z"/>
	<linearGradient id="SVGID_5_" gradientUnits="userSpaceOnUse" x1="4.0352" y1="26.4134" x2="69.6105" y2="91.9888">
		<stop  offset="0" style="stop-color:#00B280"/>
		<stop  offset="0.1865" style="stop-color:#07AF97"/>
		<stop  offset="0.5425" style="stop-color:#13ABBF"/>
		<stop  offset="0.8261" style="stop-color:#1BA9D7"/>
		<stop  offset="1" style="stop-color:#1DA8E0"/>
	</linearGradient>
	<path fill="url(#SVGID_5_)" d="M71.4,90.8c1-0.5,1.2-1.6,0.4-2.4l-5.8-5.8c-0.8-0.8-1.5-0.5-1.5,0.6v8.8c0,1.1,0.9,1.7,1.9,1.3
		L71.4,90.8z"/>
	<linearGradient id="SVGID_6_" gradientUnits="userSpaceOnUse" x1="15.2534" y1="15.1951" x2="80.8288" y2="80.7705">
		<stop  offset="0" style="stop-color:#00B280"/>
		<stop  offset="0.1865" style="stop-color:#07AF97"/>
		<stop  offset="0.5425" style="stop-color:#13ABBF"/>
		<stop  offset="0.8261" style="stop-color:#1BA9D7"/>
		<stop  offset="1" style="stop-color:#1DA8E0"/>
	</linearGradient>
	<path fill="url(#SVGID_6_)" d="M80.4,66.5c0-1.1-0.9-2.1-2.1-2.1H66.5c-1.1,0-2.1,0.9-2.1,2.1v11.8c0,1.1,0.9,2.1,2.1,2.1h11.9
		c1.1,0,2.1-0.9,2.1-2.1V66.5z"/>
	<linearGradient id="SVGID_7_" gradientUnits="userSpaceOnUse" x1="44.579" y1="-14.1305" x2="110.1544" y2="51.4449">
		<stop  offset="0" style="stop-color:#00B280"/>
		<stop  offset="0.1865" style="stop-color:#07AF97"/>
		<stop  offset="0.5425" style="stop-color:#13ABBF"/>
		<stop  offset="0.8261" style="stop-color:#1BA9D7"/>
		<stop  offset="1" style="stop-color:#1DA8E0"/>
	</linearGradient>
	<path fill="url(#SVGID_7_)" d="M90.9,24.6c-0.5-1-1.6-1.2-2.4-0.4l-5.8,5.8c-0.8,0.8-0.5,1.5,0.6,1.5H92c1.1,0,1.7-0.9,1.3-1.9
		L90.9,24.6z"/>
	<linearGradient id="SVGID_8_" gradientUnits="userSpaceOnUse" x1="44.5727" y1="-14.1241" x2="110.1481" y2="51.4513">
		<stop  offset="0" style="stop-color:#00B280"/>
		<stop  offset="0.1865" style="stop-color:#07AF97"/>
		<stop  offset="0.5425" style="stop-color:#13ABBF"/>
		<stop  offset="0.8261" style="stop-color:#1BA9D7"/>
		<stop  offset="1" style="stop-color:#1DA8E0"/>
	</linearGradient>
	<path fill="url(#SVGID_8_)" d="M71.8,7.6c0.8-0.8,0.6-1.9-0.4-2.4l-5-2.4c-1.1-0.4-1.9,0.1-1.9,1.3v8.8c0,1.1,0.7,1.4,1.5,0.6
		L71.8,7.6z"/>
	<linearGradient id="SVGID_9_" gradientUnits="userSpaceOnUse" x1="4.0127" y1="26.4359" x2="69.5881" y2="92.0113">
		<stop  offset="0" style="stop-color:#00B280"/>
		<stop  offset="0.1865" style="stop-color:#07AF97"/>
		<stop  offset="0.5425" style="stop-color:#13ABBF"/>
		<stop  offset="0.8261" style="stop-color:#1BA9D7"/>
		<stop  offset="1" style="stop-color:#1DA8E0"/>
	</linearGradient>
	<path fill="url(#SVGID_9_)" d="M7.6,24.2c-0.8-0.8-1.9-0.6-2.4,0.4l-2.4,5c-0.4,1.1,0.1,1.9,1.3,1.9h8.8c1.1,0,1.4-0.7,0.6-1.5
		L7.6,24.2z"/>
	<linearGradient id="SVGID_10_" gradientUnits="userSpaceOnUse" x1="15.2351" y1="15.2135" x2="80.8104" y2="80.7889">
		<stop  offset="0" style="stop-color:#00B280"/>
		<stop  offset="0.1865" style="stop-color:#07AF97"/>
		<stop  offset="0.5425" style="stop-color:#13ABBF"/>
		<stop  offset="0.8261" style="stop-color:#1BA9D7"/>
		<stop  offset="1" style="stop-color:#1DA8E0"/>
	</linearGradient>
	<path fill="url(#SVGID_10_)" d="M31.6,17.6c0-1.1-0.9-2.1-2.1-2.1H17.6c-1.1,0-2.1,0.9-2.1,2.1v11.8c0,1.1,0.9,2.1,2.1,2.1h11.9
		c1.1,0,2.1-0.9,2.1-2.1V17.6z"/>
	<linearGradient id="SVGID_11_" gradientUnits="userSpaceOnUse" x1="26.4533" y1="3.9952" x2="92.0287" y2="69.5706">
		<stop  offset="0" style="stop-color:#00B280"/>
		<stop  offset="0.1865" style="stop-color:#07AF97"/>
		<stop  offset="0.5425" style="stop-color:#13ABBF"/>
		<stop  offset="0.8261" style="stop-color:#1BA9D7"/>
		<stop  offset="1" style="stop-color:#1DA8E0"/>
	</linearGradient>
	<path fill="url(#SVGID_11_)" d="M31.6,4c0-1.1-0.9-1.7-1.9-1.3l-5,2.4c-1,0.5-1.2,1.6-0.4,2.4l5.8,5.8c0.8,0.8,1.5,0.5,1.5-0.6V4z"
		/>
	<linearGradient id="SVGID_12_" gradientUnits="userSpaceOnUse" x1="26.4761" y1="3.9725" x2="92.0515" y2="69.5479">
		<stop  offset="0" style="stop-color:#00B280"/>
		<stop  offset="0.1865" style="stop-color:#07AF97"/>
		<stop  offset="0.5425" style="stop-color:#13ABBF"/>
		<stop  offset="0.8261" style="stop-color:#1BA9D7"/>
		<stop  offset="1" style="stop-color:#1DA8E0"/>
	</linearGradient>
	<path fill="url(#SVGID_12_)" d="M93.3,66.3c0.4-1.1-0.1-1.9-1.3-1.9h-8.8c-1.1,0-1.4,0.7-0.6,1.5l5.8,5.8c0.8,0.8,1.9,0.6,2.4-0.4
		L93.3,66.3z"/>
	<linearGradient id="SVGID_13_" gradientUnits="userSpaceOnUse" x1="-9.1921" y1="39.6407" x2="56.3833" y2="105.2161">
		<stop  offset="0" style="stop-color:#00B280"/>
		<stop  offset="0.1865" style="stop-color:#07AF97"/>
		<stop  offset="0.5425" style="stop-color:#13ABBF"/>
		<stop  offset="0.8261" style="stop-color:#1BA9D7"/>
		<stop  offset="1" style="stop-color:#1DA8E0"/>
	</linearGradient>
	<path fill="url(#SVGID_13_)" d="M31.6,66.5c0-1.1-0.9-2.1-2.1-2.1H17.6c-1.1,0-2.1,0.9-2.1,2.1v11.8c0,1.1,0.9,2.1,2.1,2.1h11.9
		c1.1,0,2.1-0.9,2.1-2.1V66.5z"/>
	<linearGradient id="SVGID_14_" gradientUnits="userSpaceOnUse" x1="-14.0903" y1="44.5388" x2="51.4851" y2="110.1142">
		<stop  offset="0" style="stop-color:#00B280"/>
		<stop  offset="0.1865" style="stop-color:#07AF97"/>
		<stop  offset="0.5425" style="stop-color:#13ABBF"/>
		<stop  offset="0.8261" style="stop-color:#1BA9D7"/>
		<stop  offset="1" style="stop-color:#1DA8E0"/>
	</linearGradient>
	<path fill="url(#SVGID_14_)" d="M13.4,65.9c0.8-0.8,0.5-1.5-0.6-1.5H4c-1.1,0-1.7,0.9-1.3,1.9l2.4,5c0.5,1,1.6,1.2,2.4,0.4
		L13.4,65.9z"/>
	<linearGradient id="SVGID_15_" gradientUnits="userSpaceOnUse" x1="39.6806" y1="-9.232" x2="105.256" y2="56.3433">
		<stop  offset="0" style="stop-color:#00B280"/>
		<stop  offset="0.1865" style="stop-color:#07AF97"/>
		<stop  offset="0.5425" style="stop-color:#13ABBF"/>
		<stop  offset="0.8261" style="stop-color:#1BA9D7"/>
		<stop  offset="1" style="stop-color:#1DA8E0"/>
	</linearGradient>
	<path fill="url(#SVGID_15_)" d="M80.4,29.5c0,1.1-0.9,2.1-2.1,2.1H66.5c-1.1,0-2.1-0.9-2.1-2.1V17.6c0-1.1,0.9-2.1,2.1-2.1h11.9
		c1.1,0,2.1,0.9,2.1,2.1V29.5z"/>
	<linearGradient id="SVGID_16_" gradientUnits="userSpaceOnUse" x1="-1.1457" y1="31.5942" x2="64.4297" y2="97.1696">
		<stop  offset="0" style="stop-color:#00B280"/>
		<stop  offset="0.1865" style="stop-color:#07AF97"/>
		<stop  offset="0.5425" style="stop-color:#13ABBF"/>
		<stop  offset="0.8261" style="stop-color:#1BA9D7"/>
		<stop  offset="1" style="stop-color:#1DA8E0"/>
	</linearGradient>
	<path fill="url(#SVGID_16_)" d="M16.7,62.6c-0.8,0.8-2.1,0.8-2.9,0L0.6,49.4c-0.8-0.8-0.8-2.1,0-2.9l13.2-13.1
		c0.8-0.8,2.1-0.8,2.9,0l13.1,13.1c0.8,0.8,0.8,2.1,0,2.9L16.7,62.6z"/>
</g>
</svg>
